# xmcd
#
# Track frame offsets: 
#        182
#        17490
#        33507
#        53457
#        77007
#        88215
#        103482
#        128932
#        144860
#        158422
#
# Disc length: 2261 seconds
#
# Revision: 2
# Processed by: cddbd v1.5.2PL0 Copyright (c) Steve Scherf et al.
# Submitted via: ExactAudioCopy v0.95b3
#
DISCID=7408d30a
DTITLE=Konstantin Wecker - Brecht
DYEAR=1998
DGENRE=
TTITLE0=Choral vom Baal
TTITLE1=Oh, die unerhörten Möglichkeiten
TTITLE2=Das Schiff
TTITLE3=Ballade vom Mazeppa
TTITLE4=Wenn sie trinkt, fällt sie in jedes Bett
TTITLE5=Erinnerung an die Marie A.
TTITLE6=Vom Schwimmen in Seen und Flüssen
TTITLE7=In den Zeiten der äußersten Verfolgung
TTITLE8=Liebeslied
TTITLE9=Vom Glück des Gebens
EXTD=BMG 74321 542 742\n1998
EXTT0=
EXTT1=
EXTT2=
EXTT3=
EXTT4=
EXTT5=
EXTT6=
EXTT7=
EXTT8=
EXTT9=
PLAYORDER=
